# xmcd
#
# Track frame offsets: 
#        150
#        8595
#        29660
#        51799
#        87901
#        105984
#        147315
#        159545
#
# Disc length: 2293 seconds
#
# Revision: 34
# Processed by: cddbd v1.5.2PL0 Copyright (c) Steve Scherf et al.
# Submitted via: ExactAudioCopyFreeDBPlugin 1.0
#
DISCID=5c08f308
DTITLE=Stevie Ray Vaughan And Double Trouble - Couldn't Stand The Weat
DTITLE=her (MoFi) (SACD)
DYEAR=1984
DGENRE=Blues
TTITLE0=Scuttle Buttin'
TTITLE1=Couldn't Stand The Weather
TTITLE2=The Things (That) I Used To Do
TTITLE3=Voodoo Chile (Slight Return)
TTITLE4=Cold Shot
TTITLE5=Tin Pan Alley (AKA Roughest Place In Town)
TTITLE6=Honey Bee
TTITLE7=Stang's Swang
EXTD=YEAR: 1984\nThis is a Hybrid SACD Mobile Fidelity  No. 0002167\nR
EXTD=eissued 2011
EXTT0=
EXTT1=
EXTT2=
EXTT3=
EXTT4=
EXTT5=
EXTT6=
EXTT7=
PLAYORDER=
